<?xml version="1.0" encoding="utf-8"?>
<!-- Generator: Adobe Illustrator 22.1.0, SVG Export Plug-In . SVG Version: 6.00 Build 0)  -->
<svg version="1.0" id="Calque_1" xmlns="http://www.w3.org/2000/svg" xmlns:xlink="http://www.w3.org/1999/xlink" x="0px" y="0px"
	 viewBox="0 0 20.5 16.4" style="enable-background:new 0 0 20.5 16.4;" xml:space="preserve">
<style type="text/css">
	.st0{fill:#25597D;}
</style>
<path class="st0" d="M20.5,7.9c0-0.9-0.7-1.6-1.6-1.6H3.3V1.7c0-0.5,0.4-0.8,0.8-0.8S5,1.3,5,1.7C5,2,5.2,2.2,5.4,2.2S5.9,2,5.9,1.7
	c0-1-0.8-1.7-1.7-1.7c-1,0-1.7,0.8-1.7,1.7v4.6H1.6C0.7,6.3,0,7,0,7.9c0,0.7,0.5,1.4,1.2,1.6c0,1.4,0.1,2.7,0.6,3.7
	c0.4,0.8,1.1,1.3,2.1,1.6l-0.5,0.9c-0.1,0.2,0,0.5,0.2,0.6c0.1,0,0.1,0.1,0.2,0.1c0.2,0,0.3-0.1,0.4-0.2L4.8,15c0.3,0,0.6,0.1,1,0.1
	h8.9c0.4,0,0.7,0,1-0.1l0.6,1.1c0.1,0.2,0.2,0.2,0.4,0.2c0.1,0,0.1,0,0.2-0.1c0.2-0.1,0.3-0.4,0.2-0.6l-0.5-0.9
	c1-0.3,1.7-0.8,2.1-1.6c0.5-1,0.6-2.4,0.6-3.7C20,9.3,20.5,8.7,20.5,7.9L20.5,7.9z M14.7,14.1H5.8c-3.4,0-3.7-1.6-3.7-4.6h16.3
	C18.4,12.6,18.1,14.1,14.7,14.1L14.7,14.1z M18.8,8.7H1.6c-0.4,0-0.7-0.3-0.7-0.7c0-0.4,0.3-0.7,0.7-0.7h17.2c0.4,0,0.7,0.3,0.7,0.7
	C19.6,8.3,19.2,8.7,18.8,8.7z"/>
</svg>
