<?xml version="1.0" encoding="utf-8"?>
<!-- Generator: Adobe Illustrator 22.1.0, SVG Export Plug-In . SVG Version: 6.00 Build 0)  -->
<svg version="1.0" id="Calque_1" xmlns="http://www.w3.org/2000/svg" xmlns:xlink="http://www.w3.org/1999/xlink" x="0px" y="0px"
	 viewBox="0 0 20.5 12.4" style="enable-background:new 0 0 20.5 12.4;" xml:space="preserve">
<style type="text/css">
	.st0{fill:#25597D;}
</style>
<path class="st0" d="M19,5.5h-0.2V2.1c0-1.2-1-2.1-2.1-2.1H3.8C2.6,0,1.7,1,1.7,2.1v3.3H1.5C0.7,5.5,0,6.1,0,6.9v2.2
	c0,0.8,0.7,1.5,1.5,1.5h1.8v1.4c0,0.3,0.2,0.5,0.5,0.5s0.5-0.2,0.5-0.5v-1.4h12.1v1.4c0,0.3,0.2,0.5,0.5,0.5c0.3,0,0.5-0.2,0.5-0.5
	v-1.4H19c0.8,0,1.5-0.7,1.5-1.5V6.9C20.5,6.1,19.8,5.5,19,5.5L19,5.5z M2.6,2.1c0-0.7,0.5-1.2,1.2-1.2h12.9c0.7,0,1.2,0.5,1.2,1.2
	v3.3h-0.6V4.5c0-0.6-0.5-1.1-1.1-1.1h-4.7c-0.6,0-1.1,0.5-1.1,1.1v0.9H9.9V4.5c0-0.6-0.5-1.1-1.1-1.1H4.2C3.6,3.5,3.2,4,3.2,4.5v0.9
	H2.6V2.1L2.6,2.1z M11.5,5.5V4.5c0-0.1,0.1-0.1,0.1-0.1h4.7c0.1,0,0.1,0.1,0.1,0.1v0.9H11.5z M4.1,5.5V4.5c0-0.1,0.1-0.1,0.1-0.1
	h4.7C9,4.4,9,4.5,9,4.5v0.9H4.1z M19.6,9.1c0,0.3-0.2,0.5-0.5,0.5H1.5c-0.3,0-0.5-0.2-0.5-0.5V6.9c0-0.3,0.2-0.5,0.5-0.5H19
	c0.3,0,0.5,0.2,0.5,0.5V9.1z"/>
</svg>
