<?xml version="1.0" encoding="utf-8"?>
<!-- Generator: Adobe Illustrator 22.1.0, SVG Export Plug-In . SVG Version: 6.00 Build 0)  -->
<svg version="1.0" id="Calque_1" xmlns="http://www.w3.org/2000/svg" xmlns:xlink="http://www.w3.org/1999/xlink" x="0px" y="0px"
	 viewBox="0 0 25.5 24" style="enable-background:new 0 0 25.5 24;" xml:space="preserve">
<style type="text/css">
	.st0{fill:#F5D064;}
</style>
<path class="st0" d="M8,16.7c0.6,0.8,1,1.7,1,2.8c0,1.3-0.4,2.4-1.3,3.2C6.8,23.6,5.8,24,4.5,24c-1.3,0-2.4-0.4-3.2-1.3
	C0.4,21.9,0,20.8,0,19.5c0-1.3,0.3-2.9,1-4.9L5.2,0H9L5.5,15.1C6.5,15.4,7.3,15.9,8,16.7z M24.5,16.7c0.6,0.8,1,1.7,1,2.8
	c0,1.3-0.4,2.4-1.3,3.2c-0.9,0.9-1.9,1.3-3.1,1.3c-1.3,0-2.4-0.4-3.2-1.3c-0.9-0.9-1.3-1.9-1.3-3.2c0-1.3,0.3-2.9,1-4.9L21.7,0h3.8
	L22,15.1C23,15.4,23.9,15.9,24.5,16.7z"/>
</svg>
